<?xml version="1.0" standalone="no"?>
<!DOCTYPE svg PUBLIC "-//W3C//DTD SVG 20010904//EN"
 "http://www.w3.org/TR/2001/REC-SVG-20010904/DTD/svg10.dtd">
<svg version="1.0" xmlns="http://www.w3.org/2000/svg"
 width="16.000000pt" height="16.000000pt" viewBox="0 0 16.000000 16.000000"
 preserveAspectRatio="xMidYMid meet">
<metadata>
Created by potrace 1.11, written by Peter Selinger 2001-2013
</metadata>
<g transform="translate(0.000000,16.000000) scale(0.000572,-0.000572)"
fill="#000000" stroke="none">
<path d="M7543 25579 c-43 -12 -87 -58 -101 -107 -9 -31 -12 -398 -12 -1557 1
-1437 0 -1519 -17 -1553 -10 -20 -31 -45 -46 -56 -28 -21 -35 -21 -930 -21
-870 -1 -903 -2 -934 -20 -66 -39 -63 0 -63 -887 0 -897 4 -850 -70 -893 -34
-20 -48 -20 -925 -20 -876 0 -891 0 -925 -20 -20 -12 -44 -38 -55 -60 -19 -39
-19 -63 -18 -801 2 -697 0 -764 -15 -795 -26 -52 -71 -76 -155 -83 -39 -3
-584 -8 -1209 -10 l-1137 -4 -48 -23 c-35 -18 -55 -36 -73 -69 l-25 -45 3
-4990 c3 -4311 6 -4993 18 -5017 8 -16 19 -28 23 -28 24 0 1890 673 2424 874
353 133 413 148 481 122 79 -30 95 -56 225 -369 486 -1166 1113 -2164 1956
-3117 170 -191 660 -680 855 -852 783 -690 1566 -1214 2491 -1667 704 -344
1403 -599 2169 -791 1134 -284 2323 -385 3480 -295 1756 138 3415 687 4950
1641 1342 833 2453 1913 3303 3210 384 586 751 1286 1024 1953 128 314 136
317 416 207 89 -35 261 -99 382 -142 121 -42 666 -238 1210 -434 l990 -357 3
361 c2 199 -2 1506 -7 2906 -6 1400 -14 3488 -17 4640 -3 1328 -9 2114 -15
2148 -12 62 -46 106 -93 122 -24 7 -379 13 -1158 19 -862 6 -1130 10 -1153 20
-38 16 -74 49 -87 81 -7 16 -10 282 -9 771 2 501 -1 759 -8 786 -13 49 -54 88
-108 102 -29 8 -292 10 -880 8 -488 -2 -853 0 -873 6 -47 12 -85 49 -100 100
-9 32 -11 217 -9 807 3 844 6 807 -59 862 -17 14 -53 30 -79 36 -28 5 -383 8
-868 6 -529 -2 -833 0 -857 6 -51 14 -92 52 -113 102 -16 40 -17 142 -16 1553
l2 1510 -23 45 c-14 26 -37 53 -58 65 -35 20 -50 20 -1555 23 -1646 2 -1591 4
-1642 -50 -12 -13 -30 -41 -39 -63 -16 -37 -17 -154 -15 -1560 2 -1442 1
-1522 -16 -1554 -10 -19 -31 -44 -46 -55 l-28 -21 -3197 0 -3197 0 -35 20
c-19 12 -43 36 -55 55 -20 35 -20 45 -21 1561 l0 1526 -25 49 c-15 31 -37 56
-59 69 -35 20 -50 20 -1565 21 -875 1 -1544 -2 -1562 -7z m2402 -726 c36 -20
63 -57 75 -102 9 -34 11 -416 9 -1545 l-3 -1501 22 -47 c18 -36 34 -52 70 -70
l47 -23 3855 -1 c2475 -1 3874 2 3908 8 66 12 114 52 131 108 10 33 12 377 10
1560 -2 1487 -2 1519 18 1556 40 77 -17 72 928 73 943 0 892 4 928 -71 17 -35
18 -113 17 -1565 0 -984 3 -1540 10 -1562 13 -47 56 -89 99 -98 20 -4 430 -8
911 -8 817 0 877 -1 907 -18 70 -38 66 7 67 -887 1 -791 1 -806 21 -840 12
-19 36 -43 54 -54 33 -19 58 -20 920 -20 988 -1 930 3 965 -70 15 -32 16 -108
16 -801 -1 -718 0 -769 17 -803 25 -49 58 -71 128 -82 33 -5 297 -10 590 -11
292 -1 787 -4 1100 -8 633 -7 615 -5 652 -74 17 -30 18 -121 24 -1407 4 -756
13 -2471 20 -3810 19 -3248 19 -3042 -7 -3077 -37 -48 -79 -40 -434 90 -173
63 -562 204 -865 312 -302 108 -670 241 -816 295 -302 111 -362 127 -414 110
-85 -28 -107 -68 -216 -380 -431 -1235 -1091 -2401 -1888 -3335 -243 -284
-641 -694 -902 -927 -752 -674 -1620 -1245 -2574 -1696 -1144 -541 -2176 -821
-3360 -912 -382 -30 -1151 -22 -1650 16 -2832 214 -5095 1320 -6875 3359 -527
603 -1058 1367 -1487 2140 -270 486 -464 947 -619 1473 -67 228 -97 278 -181
301 -56 16 -127 -3 -433 -116 -157 -57 -573 -207 -925 -333 -352 -126 -757
-271 -899 -324 -142 -52 -279 -98 -302 -102 -57 -8 -89 12 -104 66 -11 41 -14
8087 -3 8178 7 56 39 102 88 127 39 19 70 20 1245 30 1195 10 1205 10 1245 31
22 12 49 36 60 55 20 33 20 52 20 804 1 753 1 772 21 805 11 19 35 43 54 55
34 20 48 20 920 20 864 0 886 1 919 20 19 11 43 33 55 48 21 28 21 32 23 842
2 899 -1 856 66 892 30 17 90 18 927 18 882 0 895 0 930 20 19 12 43 36 55 55
20 35 20 45 21 1575 1 1376 2 1543 16 1570 19 36 45 61 77 73 37 13 1672 9
1696 -5z"/>
<path d="M9117 24424 c-3 -4 -104 -7 -224 -8 -253 -1 -271 -6 -311 -87 l-23
-46 1 -3051 c0 -2624 2 -3067 15 -3169 19 -152 19 -305 0 -369 -8 -27 -27 -63
-43 -80 -69 -76 -152 -90 -422 -71 -107 8 -235 12 -283 9 -123 -6 -171 13
-200 77 l-21 46 3 1636 c3 1465 2 1642 -13 1690 -31 109 -100 140 -268 121
-130 -15 -289 -15 -434 0 -141 15 -205 3 -252 -45 -67 -69 -63 54 -62 -1800 1
-1569 0 -1681 -16 -1698 -10 -11 -33 -23 -53 -28 -60 -16 -436 -34 -616 -29
-187 4 -228 15 -269 71 -20 27 -20 39 -18 530 1 276 7 564 14 639 6 75 9 188
6 250 -5 133 -23 184 -86 240 -72 65 -166 77 -404 54 -96 -10 -227 -16 -305
-14 -156 3 -188 -6 -220 -65 -17 -30 -18 -86 -19 -808 -2 -842 0 -810 -57
-853 -31 -23 -32 -23 -1827 -43 -642 -8 -666 -9 -700 -28 -21 -12 -44 -39 -57
-65 l-23 -44 0 -3602 c0 -3275 1 -3602 16 -3608 39 -15 118 -5 182 23 37 16
166 65 287 109 121 44 452 167 735 272 1253 467 1827 661 2710 915 2281 657
4540 1030 6930 1145 688 33 1900 38 2540 11 1845 -79 3457 -296 5150 -692
1196 -280 1929 -513 3930 -1249 787 -289 1297 -473 1414 -509 105 -32 137 -28
162 22 14 26 16 192 16 1536 1 828 -2 1839 -6 2246 -3 407 -7 1342 -9 2077
l-2 1337 -21 28 c-31 41 -78 70 -126 76 -24 4 -532 9 -1129 13 -1213 8 -1163
4 -1203 74 -20 33 -20 51 -19 527 2 387 6 525 19 640 37 331 -2 463 -157 519
-67 24 -232 28 -427 10 -95 -9 -223 -16 -283 -16 -109 0 -111 0 -140 -29 -18
-18 -29 -40 -29 -58 -1 -15 -1 -260 -1 -543 0 -418 3 -543 16 -665 20 -173 15
-262 -16 -334 -27 -63 -71 -104 -140 -126 -45 -15 -74 -17 -203 -11 -83 4
-239 10 -346 14 -220 8 -239 13 -267 80 -14 33 -16 213 -17 1717 -1 1588 -2
1682 -19 1712 -37 68 -33 68 -427 71 -195 1 -371 3 -390 4 -95 5 -159 -37
-179 -117 -8 -31 -11 -533 -11 -1702 0 -1631 0 -1659 -20 -1690 -24 -40 -51
-47 -143 -39 -171 15 -359 18 -470 7 -187 -20 -250 0 -296 93 l-24 49 2 3292
c2 2900 1 3296 -12 3328 -29 69 -76 79 -301 66 -128 -7 -235 -7 -367 2 -135 8
-196 8 -226 0 -54 -15 -100 -67 -108 -123 -3 -24 -7 -1487 -8 -3253 -2 -2986
-4 -3215 -19 -3279 -35 -138 -90 -192 -229 -223 -58 -13 -135 -16 -349 -17
-307 -1 -327 3 -365 67 -19 31 -20 60 -18 1487 2 1005 6 1495 14 1584 27 300
-10 420 -146 472 -40 15 -64 16 -203 8 -86 -4 -245 -8 -352 -9 -204 0 -217 -2
-268 -49 -13 -11 -31 -37 -40 -56 -16 -32 -17 -162 -13 -1675 2 -902 0 -1664
-4 -1692 -9 -69 -40 -114 -90 -132 -34 -11 -63 -11 -205 4 -91 10 -260 20
-376 24 -179 5 -214 9 -238 24 -57 37 -57 44 -51 555 3 257 7 868 8 1359 l2
891 -30 44 c-18 25 -49 52 -75 66 -43 22 -51 22 -400 22 -349 0 -356 -1 -394
-23 -22 -12 -53 -39 -70 -60 l-31 -39 -8 -586 c-4 -323 -10 -945 -15 -1382 -4
-437 -11 -803 -15 -812 -5 -9 -20 -24 -35 -34 -23 -15 -66 -17 -434 -17 -303
1 -416 4 -439 13 -64 27 -60 -64 -59 1425 0 1211 -1 1358 -15 1392 -20 48 -50
80 -97 104 -35 18 -63 19 -393 19 -308 0 -360 -2 -388 -16 -45 -23 -76 -53
-98 -96 -19 -36 -19 -74 -19 -1133 0 -739 3 -1132 11 -1210 6 -64 9 -166 7
-228 -8 -240 -88 -307 -351 -294 -67 4 -167 11 -222 17 -55 6 -143 8 -195 4
-120 -8 -169 8 -197 64 -17 35 -18 107 -19 1387 -1 1274 0 1361 18 1555 29
294 19 398 -45 482 -73 95 -181 118 -435 94 -94 -9 -234 -16 -315 -14 -161 2
-173 -1 -221 -66 -21 -27 -21 -30 -26 -1741 -5 -1712 -5 -1714 -26 -1742 -11
-15 -37 -37 -58 -47 -37 -18 -43 -18 -190 -2 -86 9 -231 16 -335 16 -114 0
-199 5 -224 12 -58 17 -102 64 -122 128 -15 51 -16 272 -15 3063 1 2546 3
3027 15 3130 20 164 19 319 -1 388 -21 71 -90 141 -157 157 -48 12 -309 17
-320 6z m4523 -8738 c0 -1368 1 -1344 -51 -1519 -157 -528 -648 -947 -1322
-1127 -352 -94 -696 -78 -1081 51 -510 170 -844 508 -959 969 -21 84 -21 102
-24 1387 l-4 1302 33 6 c90 15 1014 105 1080 105 l28 0 0 -1198 c0 -1317 -2
-1265 61 -1363 68 -106 189 -191 322 -226 80 -21 232 -21 317 1 115 29 224 90
304 170 39 39 84 94 98 122 60 113 58 58 58 1365 l0 1197 73 7 c75 6 625 21
905 23 l162 2 0 -1274z m1550 1239 c766 -37 1431 -92 2195 -180 165 -19 310
-37 323 -40 l22 -5 0 -438 -1 -437 -34 -26 -34 -25 -148 18 c-176 21 -759 84
-890 96 l-93 8 0 -1433 c0 -788 -3 -1433 -7 -1433 -5 0 -111 9 -238 19 -126
11 -340 27 -475 35 -135 9 -278 19 -317 22 l-73 6 0 1429 c0 1135 -3 1430 -12
1434 -19 6 -474 25 -826 34 l-303 8 -35 34 -34 33 0 435 0 434 333 -6 c182 -4
474 -14 647 -22z m3225 -320 c835 -127 1723 -302 2590 -511 171 -41 331 -80
358 -86 l47 -11 0 -454 c0 -249 -1 -453 -3 -453 -1 0 -34 9 -72 19 -297 82
-1134 270 -1655 371 -201 39 -384 75 -408 79 l-42 9 2 -277 3 -276 50 -8 c368
-64 1245 -251 1753 -373 l242 -59 0 -453 c0 -427 -1 -453 -17 -448 -118 35
-740 179 -1153 266 -293 62 -846 170 -870 170 -6 0 -10 -102 -10 -274 l0 -274
98 -17 c468 -82 1177 -235 1775 -381 l307 -76 0 -450 c0 -423 -1 -449 -17
-444 -39 12 -562 138 -788 190 -737 168 -1579 327 -2310 434 l-120 18 -3 1903
-2 1903 37 -6 c21 -3 115 -17 208 -31z m-10715 -1686 l0 -1431 23 5 c69 18
663 126 971 177 295 50 867 135 1104 165 l52 7 0 -469 0 -469 -212 -28 c-858
-114 -1887 -301 -2780 -507 -142 -32 -262 -59 -268 -59 -7 0 -10 620 -10 1899
0 1801 1 1900 18 1905 41 12 516 119 732 165 129 27 255 54 280 59 25 6 55 10
68 11 l22 1 0 -1431z m14965 725 c83 -25 220 -68 305 -95 l155 -49 194 -352
c312 -566 639 -1167 920 -1688 l261 -485 0 1023 c0 621 4 1022 9 1022 15 0
376 -139 724 -278 l317 -127 0 -1897 c0 -1044 -3 -1898 -6 -1898 -3 0 -161 62
-352 138 -191 76 -424 168 -518 203 l-171 64 -118 220 c-224 417 -708 1301
-978 1790 l-272 490 -3 -1014 c-2 -959 -3 -1013 -20 -1006 -44 17 -533 166
-772 235 l-265 76 -3 1901 -2 1901 222 -65 c123 -35 291 -84 373 -109z
m-17650 -74 c146 -31 265 -73 395 -141 109 -56 273 -167 267 -180 -1 -4 -85
-82 -187 -174 -161 -147 -465 -426 -627 -579 l-52 -48 -83 40 c-111 54 -181
72 -315 79 -229 12 -453 -56 -679 -205 -354 -234 -632 -640 -711 -1040 -25
-128 -23 -342 6 -447 66 -249 219 -411 456 -484 70 -22 98 -25 235 -25 136 0
166 3 250 26 272 76 502 217 720 445 111 116 200 233 177 233 -14 0 -262 -76
-525 -161 -84 -27 -155 -49 -158 -49 -2 0 -3 205 -2 456 l3 456 90 29 c467
153 1586 479 1642 479 11 0 13 -193 13 -1070 l0 -1069 -42 -11 c-126 -33 -507
-138 -670 -186 -103 -30 -189 -54 -192 -54 -3 0 -6 23 -8 51 l-3 51 -66 -50
c-395 -300 -879 -511 -1344 -588 -150 -25 -449 -25 -590 0 -550 98 -909 462
-1011 1026 -22 120 -29 392 -15 531 68 658 414 1343 945 1874 440 439 954 715
1486 799 141 23 461 15 595 -14z"/>
<path d="M13210 12360 c-1953 -71 -3860 -344 -5782 -826 -266 -66 -323 -87
-370 -134 -71 -70 -62 -152 47 -445 382 -1028 952 -1916 1716 -2675 1221
-1214 2797 -1953 4510 -2115 477 -45 1166 -36 1589 21 162 22 477 85 735 149
2511 617 4251 2149 5220 4595 142 358 155 412 115 478 -31 50 -97 75 -422 157
-1257 318 -2543 544 -3828 674 -472 48 -921 81 -1525 112 -265 13 -1706 20
-2005 9z m4481 -437 c127 -133 209 -280 255 -458 36 -137 38 -336 5 -470 -44
-178 -163 -378 -288 -483 -28 -23 -55 -42 -60 -42 -6 0 -49 40 -95 88 -181
188 -270 411 -270 677 0 231 70 432 214 612 48 61 143 153 158 153 4 0 41 -35
81 -77z m-3482 -61 c178 -180 304 -415 356 -667 23 -109 31 -312 16 -416 -28
-194 -102 -393 -202 -540 -45 -67 -179 -211 -241 -261 l-37 -29 -94 93 c-153
153 -261 328 -325 528 -44 139 -56 227 -56 390 2 348 122 639 368 888 56 56
107 102 115 102 7 0 52 -40 100 -88z m-3388 -20 c127 -134 204 -278 251 -469
31 -130 30 -323 -5 -453 -48 -183 -124 -315 -255 -442 -44 -43 -84 -78 -89
-78 -17 0 -158 153 -202 219 -219 325 -221 760 -4 1088 44 67 190 223 208 223
7 0 50 -40 96 -88z m6089 -1074 c243 -45 462 -238 561 -493 57 -145 72 -234
73 -412 1 -88 -2 -164 -6 -168 -11 -11 -198 32 -311 72 -209 72 -397 194 -515
334 -125 147 -202 353 -202 539 0 115 1 117 78 129 127 20 210 20 322 -1z
m1752 -4 c24 -5 28 -12 34 -61 22 -178 -46 -404 -170 -570 -162 -215 -461
-382 -766 -427 l-85 -12 -9 30 c-4 17 -6 103 -3 191 6 191 25 272 97 420 117
240 311 384 590 439 32 6 276 -2 312 -10z m-8600 -69 c323 -83 548 -371 598
-767 11 -90 11 -290 -1 -302 -3 -3 -48 4 -100 14 -471 96 -806 366 -903 725
-18 66 -32 258 -22 298 6 26 28 34 141 51 55 8 223 -3 287 -19z m1696 6 c23
-5 46 -12 50 -16 15 -14 6 -239 -12 -310 -42 -164 -163 -351 -300 -465 -174
-144 -425 -251 -646 -276 -54 -6 -57 -5 -63 17 -15 53 -7 294 12 384 72 345
301 592 615 660 68 15 278 19 344 6z m1483 -359 c454 -121 748 -521 788 -1073
8 -110 6 -285 -4 -315 -8 -26 -319 50 -500 122 -502 201 -814 586 -842 1039
-8 138 2 212 30 221 122 39 392 42 528 6z m2205 6 l71 -10 7 -61 c35 -336 -91
-651 -362 -909 -230 -218 -561 -367 -919 -413 l-52 -7 -8 39 c-4 21 -7 117 -7
213 1 140 5 195 22 277 80 371 284 647 584 788 198 93 418 121 664 83z m3193
-594 c58 -23 75 -66 68 -163 -9 -114 -41 -224 -98 -341 -45 -91 -64 -117 -148
-201 -103 -104 -206 -177 -338 -240 -109 -52 -270 -105 -369 -122 l-79 -14 -9
31 c-4 17 -6 103 -3 191 7 192 25 274 97 420 116 238 308 386 570 440 94 19
260 19 309 -1z m-1649 -33 c271 -91 457 -298 531 -592 29 -115 40 -435 16
-445 -25 -9 -214 22 -307 52 -166 52 -301 133 -421 253 -125 126 -215 284
-259 455 -24 93 -45 275 -34 286 19 18 125 29 249 26 115 -3 141 -7 225 -35z
m-5222 -36 c39 -17 62 -64 62 -126 0 -60 -36 -224 -65 -298 -105 -268 -369
-486 -725 -599 -108 -34 -236 -59 -248 -48 -4 4 -8 74 -10 154 -3 116 1 167
16 242 67 324 260 553 547 649 148 49 338 61 423 26z m-1713 -16 c295 -71 504
-290 586 -614 21 -82 38 -367 25 -418 -5 -22 -9 -24 -58 -20 -185 16 -375 80
-520 175 -265 174 -425 453 -454 794 l-6 82 68 11 c140 22 238 19 359 -10z
m5410 -645 c65 -33 77 -69 72 -199 -12 -276 -123 -523 -326 -726 -242 -241
-586 -406 -988 -473 -31 -5 -32 -4 -40 42 -15 85 -8 360 11 456 73 371 275
660 566 806 179 89 315 120 520 117 124 -2 151 -5 185 -23z m-2221 -18 c444
-114 733 -482 786 -1001 11 -107 8 -360 -5 -373 -7 -8 -209 19 -300 40 -491
113 -863 468 -989 941 -27 100 -42 190 -51 309 l-7 77 41 11 c141 38 369 36
525 -4z m3701 -281 c33 -9 103 -37 155 -63 81 -39 109 -60 190 -142 106 -106
148 -170 196 -300 46 -120 64 -236 64 -402 0 -115 -3 -140 -15 -144 -8 -4 -52
-1 -97 6 -511 74 -929 476 -932 895 0 134 2 140 71 153 32 7 67 14 78 16 38 9
230 -4 290 -19z m1706 5 c44 -12 49 -30 49 -158 0 -351 -291 -684 -735 -842
-104 -36 -286 -82 -294 -74 -3 3 -6 81 -6 172 0 127 4 186 19 247 69 298 247
521 497 622 106 43 173 53 309 48 69 -2 141 -9 161 -15z m-8627 -65 c176 -37
338 -134 446 -270 98 -123 166 -283 190 -451 12 -79 11 -327 -1 -339 -4 -3
-51 1 -105 9 -428 64 -806 363 -903 715 -25 89 -34 189 -24 261 l8 55 65 17
c82 21 229 23 324 3z m1731 2 c59 -14 63 -23 64 -153 4 -363 -288 -695 -756
-858 -114 -39 -259 -73 -270 -62 -13 13 -16 254 -3 338 53 367 282 644 601
728 85 22 281 26 364 7z m3670 -963 c44 -9 84 -19 88 -23 14 -14 23 -179 15
-270 -39 -440 -437 -847 -1013 -1036 -71 -24 -173 -52 -225 -63 l-95 -19 -8
41 c-15 75 -11 344 7 446 115 649 631 1037 1231 924z m-2185 -13 c47 -12 135
-46 195 -76 183 -89 317 -212 429 -395 124 -200 190 -505 172 -790 l-8 -116
-81 8 c-243 22 -512 122 -732 272 -110 74 -293 255 -358 353 -108 164 -172
339 -183 507 -5 79 6 210 20 223 2 2 44 13 92 24 122 26 332 21 454 -10z"/>
<path d="M21320 11298 c-49 -33 -78 -93 -169 -344 -224 -626 -505 -1187 -853
-1707 -1244 -1859 -3232 -3073 -5433 -3316 -487 -54 -1044 -58 -1535 -11 -589
57 -1235 200 -1855 410 -2198 746 -3763 2319 -4629 4655 -87 235 -93 248 -128
284 -49 50 -95 45 -359 -45 -587 -199 -1075 -361 -1284 -426 -126 -39 -253
-81 -280 -93 -54 -24 -111 -80 -121 -121 -18 -70 16 -199 147 -561 626 -1738
1727 -3247 3194 -4380 877 -677 1916 -1223 3000 -1576 944 -308 1875 -472
2930 -518 993 -43 1956 106 3090 478 2358 774 4141 2178 5352 4213 361 606
661 1250 929 1988 125 344 124 378 -18 445 -159 76 -980 373 -1378 500 -473
150 -542 165 -600 125z m-14545 -1738 c99 -182 181 -334 183 -339 2 -5 -46
-36 -106 -68 l-110 -60 -117 214 c-64 117 -121 213 -127 213 -10 0 -212 -107
-285 -151 l-31 -19 113 -208 113 -207 -109 -58 c-61 -33 -112 -57 -114 -55 -2
2 -54 94 -114 203 -61 110 -115 199 -122 197 -6 -1 -126 -66 -266 -143 -141
-77 -257 -139 -258 -137 -2 2 -32 57 -68 122 l-65 119 641 353 c353 194 647
352 652 353 6 0 91 -148 190 -329z m15232 264 c219 -48 407 -193 506 -391 61
-121 82 -217 81 -373 0 -126 -2 -142 -33 -232 -119 -350 -419 -571 -771 -569
-122 0 -223 26 -343 88 -74 38 -109 65 -182 138 -74 73 -99 106 -132 175 -63
128 -86 231 -86 375 0 101 4 134 27 208 81 270 261 463 513 553 148 53 270 62
420 28z m-14272 -1661 c186 -206 238 -269 273 -338 119 -235 23 -505 -220
-620 -157 -74 -303 -65 -455 29 -38 24 -42 25 -47 9 -3 -10 -30 -153 -61 -318
-31 -165 -58 -308 -61 -317 -4 -13 -32 13 -115 103 -60 66 -109 127 -109 134
0 8 32 158 70 336 39 177 70 325 68 330 -2 5 -95 -74 -208 -176 -113 -102
-208 -185 -212 -185 -3 0 -47 45 -97 100 l-91 100 377 342 c208 188 454 411
546 495 93 84 172 153 175 153 4 0 79 -80 167 -177z m12945 -768 c289 -263
526 -479 527 -480 6 -4 -178 -200 -187 -200 -9 0 -1053 947 -1080 980 -10 12
4 32 81 115 92 99 93 100 113 82 12 -11 257 -234 546 -497z m-11288 -699 l316
-211 -72 -106 -72 -106 -219 148 c-120 82 -221 149 -224 149 -14 -1 -204 -301
-195 -309 5 -5 99 -68 209 -141 110 -73 202 -134 204 -136 2 -2 -27 -51 -65
-109 l-70 -104 -209 139 c-116 77 -214 140 -220 140 -14 -1 -197 -279 -190
-290 3 -4 101 -72 218 -151 116 -78 214 -144 216 -145 2 -2 -27 -51 -66 -109
l-69 -105 -338 226 c-185 124 -336 231 -334 237 2 7 185 285 408 619 l405 606
25 -16 c14 -8 167 -110 342 -226z m9733 -51 c185 -47 368 -193 468 -372 138
-250 128 -540 -27 -757 -79 -111 -179 -195 -462 -388 l-140 -96 -418 610
c-230 335 -414 613 -410 618 28 25 345 236 419 279 214 122 382 154 570 106z
m-8057 -806 c207 -77 378 -141 379 -143 1 -1 -17 -54 -41 -117 -29 -75 -48
-113 -57 -111 -8 1 -122 42 -254 92 -131 49 -240 88 -240 87 -5 -9 -125 -335
-125 -339 0 -3 107 -45 238 -94 130 -48 238 -89 240 -90 5 -2 -83 -234 -89
-234 -4 0 -113 40 -243 89 l-237 89 -13 -32 c-38 -92 -109 -297 -104 -301 3
-3 115 -47 249 -97 134 -50 245 -91 246 -92 6 -5 -86 -231 -94 -231 -21 0
-753 279 -753 287 0 7 283 769 490 1321 12 31 24 57 26 57 3 0 174 -63 382
-141z m6117 -839 c337 -376 528 -598 521 -602 -7 -4 -71 -27 -143 -52 l-132
-45 -137 155 c-75 85 -142 154 -148 154 -16 0 -499 -161 -509 -169 -4 -4 -15
-99 -23 -212 -9 -112 -17 -204 -18 -205 -8 -7 -281 -92 -284 -89 -5 5 112
1474 124 1561 l6 40 91 31 c51 17 98 31 106 30 7 -1 253 -270 546 -597z
m-2772 215 c170 -6 257 -23 338 -66 72 -38 157 -127 193 -201 80 -164 44 -381
-86 -523 -61 -67 -109 -96 -205 -125 -40 -12 -73 -25 -73 -28 0 -4 88 -128
195 -277 146 -203 190 -271 178 -274 -10 -2 -85 0 -169 4 l-151 7 -195 289
-195 289 -7 -53 c-3 -28 -6 -115 -6 -193 0 -77 -3 -183 -7 -234 l-6 -93 -134
5 c-74 3 -135 7 -137 9 -1 2 5 294 15 649 10 355 18 687 18 738 l1 92 145 -5
c80 -3 209 -7 288 -10z"/>
<path d="M21693 9555 c-211 -57 -370 -248 -389 -468 -7 -80 16 -192 58 -277
78 -160 271 -279 454 -280 70 0 193 33 265 71 151 81 259 269 259 450 0 192
-105 365 -277 456 -114 61 -254 79 -370 48z"/>
<path d="M7450 7862 c-58 -53 -131 -120 -163 -149 l-57 -52 82 -91 c123 -137
199 -173 299 -144 70 21 105 46 140 102 37 58 40 143 8 208 -23 48 -175 224
-192 224 -7 -1 -59 -45 -117 -98z"/>
<path d="M18823 6376 c-65 -16 -140 -53 -242 -119 l-82 -53 267 -390 c146
-214 271 -395 278 -402 31 -32 269 185 325 296 56 110 61 211 20 340 -78 240
-329 385 -566 328z"/>
<path d="M16656 5113 c-3 -48 -9 -159 -12 -245 l-6 -157 166 55 c92 31 166 60
164 65 -4 11 -276 345 -293 359 -10 9 -14 -6 -19 -77z"/>
<path d="M14248 4743 c-3 -126 -5 -229 -3 -231 1 -1 64 -3 141 -4 153 -2 192
8 247 60 116 110 93 293 -47 364 -39 20 -166 36 -287 38 l-46 0 -5 -227z"/>
</g>
</svg>
